<?xml version="1.0" encoding="UTF-8" standalone="no"?>
<!-- Generator: Adobe Illustrator 19.0.0, SVG Export Plug-In . SVG Version: 6.00 Build 0)  -->

<svg
   xmlns:dc="http://purl.org/dc/elements/1.1/"
   xmlns:cc="http://creativecommons.org/ns#"
   xmlns:rdf="http://www.w3.org/1999/02/22-rdf-syntax-ns#"
   xmlns:svg="http://www.w3.org/2000/svg"
   xmlns="http://www.w3.org/2000/svg"
   xmlns:sodipodi="http://sodipodi.sourceforge.net/DTD/sodipodi-0.dtd"
   xmlns:inkscape="http://www.inkscape.org/namespaces/inkscape"
   version="1.1"
   id="Capa_1"
   x="0px"
   y="0px"
   viewBox="0 0 18 18"
   xml:space="preserve"
   sodipodi:docname="megaphone.svg"
   width="18"
   height="18"
   inkscape:version="0.92.3 (2405546, 2018-03-11)"><metadata
   id="metadata79"><rdf:RDF><cc:Work
       rdf:about=""><dc:format>image/svg+xml</dc:format><dc:type
         rdf:resource="http://purl.org/dc/dcmitype/StillImage" /><dc:title></dc:title></cc:Work></rdf:RDF></metadata><defs
   id="defs77" /><sodipodi:namedview
   pagecolor="#ffffff"
   bordercolor="#666666"
   borderopacity="1"
   objecttolerance="10"
   gridtolerance="10"
   guidetolerance="10"
   inkscape:pageopacity="0"
   inkscape:pageshadow="2"
   inkscape:window-width="1366"
   inkscape:window-height="705"
   id="namedview75"
   showgrid="false"
   inkscape:zoom="12.283139"
   inkscape:cx="15.948385"
   inkscape:cy="14.364627"
   inkscape:window-x="-8"
   inkscape:window-y="-8"
   inkscape:window-maximized="1"
   inkscape:current-layer="Capa_1" />






<g
   id="g910"
   transform="matrix(0.03423886,0,0,0.03423886,0.2348541,0.23487074)"><g
     style="fill:#f2f2f2"
     id="g6">
	<g
   style="fill:#f2f2f2"
   id="g4">
		<path
   style="fill:#f2f2f2"
   id="path2"
   d="M 467.069,212.578 267.381,12.861 C 255.604,1.113 236.553,1.252 224.93,12.846 c -11.689,11.719 -11.689,30.747 0,42.451 L 424.647,255 c 11.7,11.7 30.721,11.7 42.422,0 11.732,-11.732 11.732,-30.692 0,-42.422 z"
   inkscape:connector-curvature="0" />
	</g>
</g><g
     style="fill:#f2f2f2"
     id="g12">
	<g
   style="fill:#f2f2f2"
   id="g10">
		<path
   style="fill:#f2f2f2"
   id="path8"
   d="m 210.115,82.905 -1.503,7.534 c -10.587,52.958 -36.317,103.269 -71.118,144.046 l 108.647,108.647 c 40.772,-34.794 90.39,-61.215 143.35,-71.815 l 7.548,-1.503 z"
   inkscape:connector-curvature="0" />
	</g>
</g><g
     style="fill:#f2f2f2"
     id="g18">
	<g
   style="fill:#f2f2f2"
   id="g16">
		<path
   style="fill:#f2f2f2"
   id="path14"
   d="m 117.575,256.989 -74.253,74.238 c -17.545,17.545 -17.618,46.029 0,63.647 l 42.422,42.422 c 17.545,17.545 46.029,17.617 63.647,0 l 74.246,-74.246 z m 10.606,116.675 c -5.859,5.859 -15.352,5.859 -21.211,0 -5.859,-5.859 -5.859,-15.352 0,-21.211 l 21.211,-21.211 c 5.859,-5.859 15.352,-5.859 21.211,0 5.859,5.859 5.859,15.352 0,21.211 z"
   inkscape:connector-curvature="0" />
	</g>
</g><g
     style="fill:#f2f2f2"
     id="g24">
	<g
   style="fill:#f2f2f2"
   id="g22">
		<path
   style="fill:#f2f2f2"
   id="path20"
   d="m 286.266,445.278 20.405,-20.405 c 17.619,-17.616 17.561,-46.1 0.001,-63.631 l -15.156,-15.167 c -8.377,5.627 -16.377,11.741 -24.155,18.265 l 18.1,18.127 c 5.845,5.815 5.886,15.279 0,21.196 l -20.742,20.742 -30.482,-29.533 -42.424,42.424 68.057,65.947 c 11.614,11.644 30.683,11.71 42.407,-0.015 11.704,-11.704 11.704,-30.732 0,-42.437 z"
   inkscape:connector-curvature="0" />
	</g>
</g><g
     style="fill:#f2f2f2"
     id="g30">
	<g
   style="fill:#f2f2f2"
   id="g28">
		<path
   style="fill:#f2f2f2"
   id="path26"
   d="m 346.864,0 c -8.291,0 -15,6.709 -15,15 v 30 c 0,8.291 6.709,15 15,15 8.291,0 15,-6.709 15,-15 V 15 c 0,-8.291 -6.709,-15 -15,-15 z"
   inkscape:connector-curvature="0" />
	</g>
</g><g
     style="fill:#f2f2f2"
     id="g36">
	<g
   style="fill:#f2f2f2"
   id="g34">
		<path
   style="fill:#f2f2f2"
   id="path32"
   d="m 466.864,120 h -30 c -8.291,0 -15,6.709 -15,15 0,8.291 6.709,15 15,15 h 30 c 8.291,0 15,-6.709 15,-15 0,-8.291 -6.709,-15 -15,-15 z"
   inkscape:connector-curvature="0" />
	</g>
</g><g
     style="fill:#f2f2f2"
     id="g42">
	<g
   style="fill:#f2f2f2"
   id="g40">
		<path
   style="fill:#f2f2f2"
   id="path38"
   d="m 447.469,34.394 c -5.859,-5.859 -15.352,-5.859 -21.211,0 l -30,30 c -5.859,5.859 -5.859,15.352 0,21.211 5.859,5.859 15.352,5.86 21.211,0 l 30,-30 c 5.859,-5.859 5.859,-15.352 0,-21.211 z"
   inkscape:connector-curvature="0" />
	</g>
</g></g>
<g
   id="g44"
   transform="translate(0,-493.99899)">
</g>
<g
   id="g46"
   transform="translate(0,-493.99899)">
</g>
<g
   id="g48"
   transform="translate(0,-493.99899)">
</g>
<g
   id="g50"
   transform="translate(0,-493.99899)">
</g>
<g
   id="g52"
   transform="translate(0,-493.99899)">
</g>
<g
   id="g54"
   transform="translate(0,-493.99899)">
</g>
<g
   id="g56"
   transform="translate(0,-493.99899)">
</g>
<g
   id="g58"
   transform="translate(0,-493.99899)">
</g>
<g
   id="g60"
   transform="translate(0,-493.99899)">
</g>
<g
   id="g62"
   transform="translate(0,-493.99899)">
</g>
<g
   id="g64"
   transform="translate(0,-493.99899)">
</g>
<g
   id="g66"
   transform="translate(0,-493.99899)">
</g>
<g
   id="g68"
   transform="translate(0,-493.99899)">
</g>
<g
   id="g70"
   transform="translate(0,-493.99899)">
</g>
<g
   id="g72"
   transform="translate(0,-493.99899)">
</g>
</svg>